# xmcd
#
# Track frame offsets: 
#        150
#        13729
#        26432
#        42815
#        58975
#        73003
#        85980
#        105155
#        121333
#        143963
#        157381
#        168357
#        179783
#        189091
#        209493
#        234260
#        244242
#
# Disc length: 3485 seconds
#
# Revision: 0
# Processed by: cddbd v1.5.2PL0 Copyright (c) Steve Scherf et al.
# Submitted via: ExactAudioCopy v0.99pb5
#
DISCID=ee0d9b11
DTITLE=Various Artist - Car Talk Stairway to Heapdom
DYEAR=2009
DGENRE=Comedy
TTITLE0=Howie Tarnower and Boston City Limits - Machanic's Shrug
TTITLE1=Beethoven's Wig - Beep Beep Beep (Moonlight Sonata)
TTITLE2=The 90 Pound Suburband - 90 Pound Suburban Houswide (Drivin' i
TTITLE2=n her SUV)
TTITLE3=Graham Parker - Crawling From The Wreckage (Revisited)
TTITLE4=Tim Guidotti - Carburetor
TTITLE5=Trish Lester - Plymouth Belvedere
TTITLE6=Split Lip Rayfield - Kiss Of Death
TTITLE7=The Strange Tones - Kiss Of Death
TTITLE8=2nd Nature - The Roadkill Bill
TTITLE9=Corb Lund - The Truck Got Stuck
TTITLE10=The Get Me Downs - Sexsie Volvo
TTITLE11=Justin Dullum - Aspire
TTITLE12=Nice and Naughty - Bondo Queen
TTITLE13=Monkeyshine - Little Reg Vega
TTITLE14=Todd Butler - Car Song
TTITLE15=Antsy McClain and the Trailer Park Troubadours - I was Just F
TTITLE15=lipped Off By A Silver Haired Old Lady With A "Honk If You Lo
TTITLE15=ve Je
TTITLE16=Don Burnham - Drivin Lesson
EXTD=
EXTT0=
EXTT1=
EXTT2=
EXTT3=
EXTT4=
EXTT5=
EXTT6=
EXTT7=
EXTT8=
EXTT9=
EXTT10=
EXTT11=
EXTT12=
EXTT13=
EXTT14=
EXTT15=
EXTT16=
PLAYORDER=
